<svg viewBox="0 0 388 80" fill="none" xmlns="http://www.w3.org/2000/svg"><path d="M79.9233 55.7324h-.2279c-3.6394 0-7.4827-3.8536-7.4827-7.497v-.2161h-.5576v.2281c0 3.6434-3.8493 7.497-7.4888 7.497h-.2278v.5582h.2158c3.6395 0 7.4888 3.8475 7.4888 7.491v.2281h.5576v-.2281c0-3.6435 3.8433-7.491 7.4827-7.491h.2279v-.5582l.012-.012ZM15.9848 7.71909h-.2279c-3.6394 0-7.48271-3.84754-7.48271-7.490999V0h-.5636v.228091c0 3.643459-3.84331 7.490999-7.48275 7.490999H0v.56423h.22784c3.63944 0 7.48275 3.84758 7.48275 7.49098v.2281h.5636v-.2281c0-3.6434 3.84331-7.49098 7.48271-7.49098h.2279v-.56423Z" fill="#00E1E1"/><path d="M15.9848 23.7274h-.2279c-3.6394 0-7.48271-3.8536-7.48271-7.521v-.2281h-.5636v.2281c0 3.6434-3.84331 7.497-7.48275 7.497H0v.5582h.22784c3.63944 0 7.48275 3.8475 7.48275 7.491v.2281h.5636v-.2281c0-3.6435 3.84331-7.491 7.48271-7.491h.2279v-.5582.024ZM31.9701 23.7275h-.2278c-3.6395 0-7.4828-3.8535-7.4828-7.497v-.2281h-.5636v.2041c0 3.6435-3.8433 7.497-7.4827 7.497h-.2278v.5582h.2038c3.6395 0 7.4828 3.8476 7.4828 7.491v.2281h.5636v-.2281c0-3.6434 3.8433-7.491 7.4827-7.491h.2278v-.5582l.024.024ZM15.9848 39.73h-.2279c-3.6394 0-7.48271-3.8536-7.48271-7.497v-.2281h-.5636v.2281c0 3.6434-3.84331 7.497-7.48275 7.497H0v.5582h.22784c3.63944 0 7.48275 3.8475 7.48275 7.491v.2401h.5636v-.2401c0-3.6435 3.84331-7.491 7.48271-7.491h.2279V39.73ZM31.9701 39.73h-.2278c-3.6395 0-7.4828-3.8536-7.4828-7.497v-.2281h-.5636v.2281c0 3.6434-3.8433 7.497-7.4827 7.497h-.2278v.5582h.2038c3.6395 0 7.4828 3.8475 7.4828 7.491v.2401h.5636v-.2401c0-3.6435 3.8433-7.491 7.4827-7.491h.2278V39.73h.024Z" fill="#00E1E1"/><path d="M47.9665 39.73h-.2398c-3.6395 0-7.4828-3.8536-7.4828-7.497v-.2281h-.5636v.2281c0 3.6434-3.8433 7.497-7.4827 7.497h-.2279v.5582h.2279c3.6394 0 7.4827 3.8475 7.4827 7.491v.2401h.5636v-.2401c0-3.6435 3.8433-7.491 7.4828-7.491h.2398V39.73ZM15.9848 55.7324h-.2279c-3.6394 0-7.48271-3.8536-7.48271-7.497v-.2161h-.5636v.2281c0 3.6434-3.84331 7.497-7.48275 7.497H0v.5582h.22784c3.63944 0 7.48275 3.8475 7.48275 7.491v.2281h.5636v-.2281c0-3.6435 3.84331-7.491 7.48271-7.491h.2279v-.5702ZM31.9701 55.7324h-.2278c-3.6395 0-7.4828-3.8536-7.4828-7.497v-.2161h-.5636v.2281c0 3.6434-3.8433 7.497-7.4827 7.497h-.2278v.5582h.2038c3.6395 0 7.4828 3.8475 7.4828 7.491v.2281h.5636v-.2281c0-3.6435 3.8433-7.491 7.4827-7.491h.2278v-.5582l.024-.012ZM63.9396 23.7275h-.2278c-3.6395 0-7.4828-3.8535-7.4828-7.497v-.2281h-.5576v.2041c0 3.6435-3.8493 7.497-7.4888 7.497h-.2158v.5582h.2278c3.6395 0 7.4888 3.8476 7.4888 7.491v.2281h.5576v-.2281c0-3.6434 3.8433-7.491 7.4827-7.491h.2279v-.5582l-.012.024ZM63.9396 39.73h-.2278c-3.6395 0-7.4828-3.8536-7.4828-7.497v-.2281h-.5576v.2281c0 3.6434-3.8493 7.497-7.4888 7.497h-.2158v.5582h.2278c3.6395 0 7.4888 3.8475 7.4888 7.491v.2401h.5576v-.2401c0-3.6435 3.8433-7.491 7.4827-7.491h.2279V39.73h-.012ZM63.9396 55.7324h-.2278c-3.6395 0-7.4828-3.8536-7.4828-7.497v-.2161h-.5576v.2281c0 3.6434-3.8493 7.497-7.4888 7.497h-.2158v.5582h.2278c3.6395 0 7.4888 3.8475 7.4888 7.491v.2281h.5576v-.2281c0-3.6435 3.8433-7.491 7.4827-7.491h.2279v-.5582l-.012-.012Z" fill="#00E1E1"/><path d="M79.9233 23.7275h-.2279c-3.6394 0-7.4827-3.8535-7.4827-7.497v-.2281h-.5576v.2041c0 3.6435-3.8493 7.497-7.4888 7.497h-.2278v.5582h.2158c3.6395 0 7.4888 3.8476 7.4888 7.491v.2281h.5576v-.2281c0-3.6434 3.8433-7.491 7.4827-7.491h.2279v-.5582l.012.024Z" fill="#00E1E1"/><path d="M79.9233 7.71909h-.2279c-3.6394 0-7.4827-3.84754-7.4827-7.490999V0h-.5576v.228091c0 3.643459-3.8493 7.490999-7.4888 7.490999h-.2278v.56423h.2158c3.6395 0 7.4888 3.84758 7.4888 7.49098v.2281h.5576v-.2281c0-3.6434 3.8433-7.49098 7.4827-7.49098h.2279v-.56423h.012ZM79.9233 39.73h-.2279c-3.6394 0-7.4827-3.8536-7.4827-7.497v-.2281h-.5576v.2281c0 3.6434-3.8493 7.497-7.4888 7.497h-.2278v.5582h.2158c3.6395 0 7.4888 3.8475 7.4888 7.491v.2401h.5576v-.2401c0-3.6435 3.8433-7.491 7.4827-7.491h.2279V39.73h.012ZM79.9233 71.7346h-.2279c-3.6394 0-7.4827-3.8535-7.4827-7.497v-.2281h-.5576v.2161c0 3.6435-3.8493 7.497-7.4888 7.497h-.2278v.5582h.2158c3.6395 0 7.4888 3.8476 7.4888 7.491v.2281h.5576v-.2281c0-3.6434 3.8433-7.491 7.4827-7.491h.2279v-.5582l.012.012ZM15.9848 71.7346h-.2279c-3.6394 0-7.48271-3.8535-7.48271-7.497v-.2281h-.5636v.2161c0 3.6435-3.84331 7.497-7.48275 7.497H0v.5582h.22784c3.63944 0 7.48275 3.8476 7.48275 7.491v.2281h.5636v-.2281c0-3.6434 3.84331-7.491 7.48271-7.491h.2279v-.5582.012Z" fill="#00E1E1"/><path d="M377.975 54.9159V28.9435H388v-3.9916h-24.847v3.9916h10.067v19.808c.049 1.3577-.053 2.7166-.306 4.0516-.1.4838-.322.9342-.644 1.3089-.322.3748-.734.6617-1.196.8339l6.901-.03ZM239.718 24.97c.462.1741.872.4624 1.193.8381.321.3758.542.8267.642 1.3107.252 1.3349.355 2.6939.305 4.0516v23.7455h18.276v-4.0396h-13.605V24.9519h-6.811v.0181Zm-32.881 0c.455.1749.86.4608 1.177.8318.318.3711.537.8155.64 1.293.252 1.3349.354 2.6939.305 4.0516v23.7695h19.691v-4.0516h-15.002v-9.0396h14.192v-3.8175h-14.192v-9.0036h14.99v-4.0517l-21.801.0181Zm-107.2647 0c.4627.1722.8747.4591 1.1957.8339.322.3747.544.8251.645 1.3089.252 1.3288.355 2.6819.306 4.0336v23.7695h4.664V41.8487h17.208v13.0672h4.665v-29.964h-4.665v13.0313h-17.208V24.9519l-6.8107.0181ZM299.232 54.9339h4.485l10.319-24.2197 10.336 24.2077h4.485l-12.759-29.97h-6.115s1.798.4502.419 3.7095l-11.158 26.2545-.012.018Zm-162.072 0h4.485l10.318-24.2197L162.3 54.9219h4.485l-12.759-29.97h-6.098s1.799.4502.42 3.7095l-11.176 26.2545-.012.018Zm153.828-8.9916c-1.321 2.2976-3.362 4.0943-5.807 5.1114-2.445 1.017-5.158 1.1974-7.716.5132s-4.819-2.1948-6.431-4.2972c-1.613-2.1024-2.487-4.679-2.487-7.3298 0-2.6507.874-5.2273 2.487-7.3297 1.612-2.1024 3.873-3.613 6.431-4.2972 2.558-.6843 5.271-.5038 7.716.5132 2.445 1.017 4.486 2.8138 5.807 5.1113l3.507-2.0288c-1.765-3.0772-4.495-5.4846-7.768-6.8484-3.272-1.3637-6.902-1.6073-10.327-.693-3.425.9144-6.452 2.9355-8.612 5.7493-2.159 2.8139-3.33 6.2629-3.33 9.8113 0 3.5484 1.171 6.9975 3.33 9.8114 2.16 2.8138 5.187 4.8349 8.612 5.7493 3.425.9143 7.055.6707 10.327-.6931 3.273-1.3637 6.003-3.7712 7.768-6.8484l-3.507-2.0288v.024Zm55.809-7.9411c-6.464-1.3866-7.645-2.8752-7.645-5.4022 0-2.527 2.398-4.3397 5.84-4.3397 3.025.0014 5.947 1.1044 8.22 3.1032l.324.2641 2.398-3.2113-.306-.2461c-2.947-2.4995-6.715-3.8187-10.576-3.7035-5.828 0-10.055 3.5415-10.055 8.5115 0 5.5342 4.071 7.551 10.193 8.8835 6.121 1.3325 7.315 2.7731 7.315 5.2701 0 2.7011-2.525 4.5919-6.14 4.5919-3.777 0-6.595-1.2005-9.797-4.0517l-.312-.2821-2.578 3.0552.294.2702c3.31 3.1366 7.71 4.859 12.267 4.8019 6.146 0 10.433-3.6015 10.433-8.8055 0-4.5979-2.956-7.2029-9.887-8.7155l.012.006Zm-156.67-8.9556h-17.268v-4.1177h24.505v1.7167l-17.268 24.1777h17.268v4.1116h-24.505v-1.7106l17.268-24.1777Z" fill="#fff"/></svg>